<?xml version="1.0" standalone="no"?><!DOCTYPE svg PUBLIC "-//W3C//DTD SVG 1.1//EN" "http://www.w3.org/Graphics/SVG/1.1/DTD/svg11.dtd"><svg t="1640612417074" class="icon" viewBox="0 0 3072 1024" version="1.1" xmlns="http://www.w3.org/2000/svg" p-id="3626" xmlns:xlink="http://www.w3.org/1999/xlink" width="600" height="200"><defs><style type="text/css"></style></defs><path d="M361.813333 858.453333c-3.413333-1.706667-8.533333-3.413333-13.653333-5.12-5.12-1.706667-10.24-5.12-15.36-6.826666l1.706667-1.706667c1.706667 0 3.413333 1.706667 3.413333 1.706667 1.706667 0 3.413333 1.706667 5.12 1.706666 0 0 1.706667 0 1.706667-1.706666 1.706667-1.706667 3.413333-5.12 6.826666-13.653334l3.413334-8.533333 5.12-10.24 1.706666-3.413333v-1.706667h-13.653333c0-1.706667 1.706667-3.413333 1.706667-5.12 8.533333 1.706667 17.066667 1.706667 25.6 3.413333v1.706667c0 1.706667-1.706667 3.413333-3.413334 6.826667 0 1.706667-1.706667 3.413333-3.413333 8.533333l-6.826667 15.36c-5.12 10.24-6.826667 15.36-6.826666 17.066667v1.706666l6.826666 3.413334v-3.413334zM472.746667 866.986667c0 3.413333-1.706667 5.12-3.413334 8.533333-3.413333 5.12-6.826667 6.826667-13.653333 8.533333h-8.533333c-6.826667-1.706667-11.946667-3.413333-15.36-8.533333-1.706667-1.706667-1.706667-5.12-1.706667-8.533333s1.706667-6.826667 5.12-10.24c1.706667 0 3.413333-1.706667 6.826667-3.413334-5.12-3.413333-8.533333-8.533333-6.826667-13.653333 1.706667-6.826667 5.12-10.24 11.946667-11.946667 3.413333-1.706667 6.826667-1.706667 10.24 0 5.12 0 8.533333 1.706667 11.946666 5.12 1.706667 3.413333 3.413333 5.12 3.413334 8.533334 0 5.12-3.413333 8.533333-10.24 10.24 3.413333 1.706667 6.826667 5.12 8.533333 6.826666 1.706667 1.706667 3.413333 5.12 1.706667 8.533334z m-10.24 3.413333c0-3.413333-1.706667-6.826667-5.12-10.24-1.706667-1.706667-5.12-3.413333-6.826667-5.12h-1.706667c-5.12 1.706667-6.826667 5.12-8.533333 10.24v6.826667c1.706667 3.413333 5.12 6.826667 8.533333 6.826666s5.12 0 6.826667-1.706666c5.12-1.706667 6.826667-3.413333 6.826667-6.826667z m3.413333-29.013333c0-3.413333 0-5.12-1.706667-6.826667-1.706667-1.706667-3.413333-3.413333-6.826666-3.413333s-5.12 0-6.826667 1.706666c-1.706667 1.706667-3.413333 3.413333-3.413333 5.12 0 1.706667 0 3.413333 1.706666 5.12l3.413334 3.413334s1.706667 1.706667 3.413333 1.706666l1.706667 1.706667c6.826667-1.706667 8.533333-5.12 8.533333-8.533333zM568.32 846.506667c1.706667 6.826667 0 13.653333-1.706667 18.773333-1.706667 5.12-5.12 10.24-10.24 13.653333-5.12 3.413333-10.24 6.826667-15.36 6.826667l-3.413333-1.706667 1.706667-1.706666h3.413333c5.12 0 8.533333-3.413333 11.946667-6.826667 1.706667-1.706667 1.706667-3.413333 3.413333-5.12 1.706667-3.413333 1.706667-8.533333 1.706667-15.36-3.413333 5.12-6.826667 6.826667-6.826667 6.826667-1.706667 1.706667-3.413333 1.706667-6.826667 1.706666s-6.826667 0-10.24-3.413333c-5.12-3.413333-6.826667-6.826667-6.826666-11.946667-1.706667-8.533333 1.706667-13.653333 6.826666-18.773333 3.413333-1.706667 6.826667-3.413333 10.24-3.413333 8.533333-1.706667 13.653333 1.706667 18.773334 8.533333 1.706667 1.706667 3.413333 6.826667 3.413333 11.946667z m-11.946667-3.413334c0-5.12-1.706667-8.533333-3.413333-10.24-1.706667-1.706667-5.12-3.413333-6.826667-3.413333-3.413333 0-5.12 1.706667-6.826666 6.826667v6.826666c0 3.413333 1.706667 6.826667 3.413333 8.533334 1.706667 1.706667 3.413333 3.413333 6.826667 1.706666 3.413333 0 5.12-1.706667 6.826666-5.12v-5.12zM663.893333 829.44c1.706667 3.413333 1.706667 5.12 1.706667 8.533333 0 5.12-3.413333 10.24-6.826667 13.653334-1.706667 1.706667-3.413333 3.413333-6.826666 3.413333-6.826667 3.413333-11.946667 3.413333-17.066667 0-1.706667-1.706667-3.413333-3.413333-5.12-6.826667-1.706667-3.413333-1.706667-6.826667 0-10.24 0-1.706667 1.706667-3.413333 5.12-5.12-6.826667 0-11.946667-3.413333-13.653333-8.533333-3.413333-5.12-1.706667-11.946667 3.413333-17.066667 1.706667-1.706667 5.12-3.413333 8.533333-5.12 5.12-1.706667 8.533333-3.413333 11.946667-1.706666 3.413333 1.706667 6.826667 3.413333 6.826667 6.826666 1.706667 5.12 1.706667 8.533333-3.413334 13.653334 5.12 0 8.533333 0 10.24 1.706666 1.706667 1.706667 5.12 3.413333 5.12 6.826667z m-18.773333-18.773333l-5.12-5.12h-6.826667l-5.12 5.12v5.12c0 1.706667 1.706667 3.413333 5.12 3.413333h11.946667c1.706667-1.706667 1.706667-5.12 0-8.533333z m11.946667 27.306666c-1.706667-3.413333-5.12-5.12-8.533334-5.12h-10.24c-3.413333 5.12-3.413333 8.533333-1.706666 13.653334 1.706667 1.706667 1.706667 3.413333 3.413333 5.12 3.413333 1.706667 6.826667 3.413333 11.946667 1.706666 3.413333-1.706667 5.12-3.413333 5.12-5.12 1.706667-5.12 1.706667-6.826667 0-10.24z" fill="#9A0000" p-id="3627"></path><path d="M341.333333 128c-49.493333 20.48-93.866667 51.2-131.413333 88.746667s-68.266667 81.92-88.746667 131.413333c-22.186667 51.2-32.426667 104.106667-32.426666 160.426667 0 56.32 10.24 109.226667 32.426666 160.426666 20.48 49.493333 51.2 93.866667 88.746667 131.413334s81.92 68.266667 131.413333 88.746666c51.2 22.186667 104.106667 32.426667 160.426667 32.426667 56.32 0 109.226667-10.24 160.426667-32.426667 49.493333-20.48 93.866667-51.2 131.413333-88.746666s68.266667-81.92 88.746667-131.413334c22.186667-51.2 32.426667-104.106667 32.426666-160.426666 0-56.32-10.24-109.226667-32.426666-160.426667-20.48-49.493333-51.2-93.866667-88.746667-131.413333s-81.92-68.266667-131.413333-88.746667c-51.2-22.186667-104.106667-32.426667-160.426667-32.426667-56.32 0-109.226667 10.24-160.426667 32.426667z m5.12 745.813333c-47.786667-20.48-90.453333-49.493333-126.293333-85.333333-35.84-35.84-64.853333-78.506667-85.333333-126.293333-20.48-49.493333-30.72-100.693333-30.72-155.306667 0-52.906667 10.24-105.813333 30.72-155.306667 20.48-47.786667 49.493333-90.453333 85.333333-126.293333 35.84-35.84 78.506667-64.853333 126.293333-85.333333 49.493333-20.48 100.693333-30.72 155.306667-30.72 52.906667 0 105.813333 10.24 155.306667 30.72 47.786667 20.48 90.453333 49.493333 126.293333 85.333333 35.84 35.84 64.853333 78.506667 85.333333 126.293333 20.48 49.493333 30.72 100.693333 30.72 155.306667 0 52.906667-10.24 105.813333-30.72 155.306667-20.48 47.786667-49.493333 90.453333-85.333333 126.293333-35.84 35.84-78.506667 64.853333-126.293333 85.333333-49.493333 20.48-100.693333 30.72-155.306667 30.72-54.613333 0-105.813333-10.24-155.306667-30.72z" fill="#9A0000" p-id="3628"></path><path d="M382.293333 225.28c-35.84 15.36-68.266667 37.546667-97.28 64.853333-27.306667 27.306667-49.493333 59.733333-64.853333 97.28-15.36 37.546667-23.893333 76.8-23.893333 117.76 0 40.96 8.533333 80.213333 23.893333 117.76 15.36 35.84 37.546667 68.266667 64.853333 97.28 27.306667 27.306667 59.733333 49.493333 97.28 64.853334 37.546667 15.36 76.8 23.893333 117.76 23.893333 40.96 0 80.213333-8.533333 117.76-23.893333 35.84-15.36 68.266667-37.546667 97.28-64.853334 27.306667-27.306667 49.493333-59.733333 64.853334-97.28 15.36-37.546667 23.893333-76.8 23.893333-117.76 0-40.96-8.533333-80.213333-23.893333-117.76-15.36-35.84-37.546667-68.266667-64.853334-97.28-27.306667-27.306667-59.733333-49.493333-97.28-64.853333-37.546667-15.36-76.8-23.893333-117.76-23.893333-39.253333 0-80.213333 8.533333-117.76 23.893333z m5.12 552.96c-35.84-15.36-66.56-35.84-93.866666-63.146667s-47.786667-58.026667-63.146667-93.866666c-15.36-35.84-23.893333-75.093333-23.893333-114.346667s8.533333-78.506667 23.893333-114.346667c15.36-35.84 35.84-66.56 63.146667-93.866666s58.026667-47.786667 93.866666-63.146667c35.84-15.36 75.093333-23.893333 114.346667-23.893333s78.506667 8.533333 114.346667 23.893333c35.84 15.36 66.56 35.84 93.866666 63.146667s47.786667 58.026667 63.146667 93.866666c15.36 35.84 23.893333 75.093333 23.893333 114.346667s-8.533333 78.506667-23.893333 114.346667c-15.36 35.84-35.84 66.56-63.146667 93.866666s-58.026667 47.786667-93.866666 63.146667c-35.84 15.36-75.093333 23.893333-114.346667 23.893333s-78.506667-8.533333-114.346667-23.893333z" fill="#9A0000" p-id="3629"></path><path d="M151.893333 612.693333c3.413333-1.706667 5.12-1.706667 8.533334-1.706666 1.706667 0 5.12 1.706667 6.826666 3.413333 1.706667 1.706667 3.413333 3.413333 5.12 6.826667 1.706667 1.706667 3.413333 5.12 5.12 8.533333l1.706667 3.413333 13.653333-5.12c1.706667 0 1.706667 0 1.706667-1.706666v-1.706667-3.413333-3.413334l3.413333-1.706666 10.24 27.306666-3.413333 1.706667s0-1.706667-1.706667-3.413333c0-1.706667-1.706667-1.706667-1.706666-1.706667l-1.706667-1.706667h-1.706667l-35.84 13.653334s-1.706667 0-1.706666 1.706666v8.533334l-3.413334 1.706666-10.24-27.306666c-1.706667-6.826667-3.413333-11.946667-1.706666-15.36 0-5.12 3.413333-6.826667 6.826666-8.533334z m6.826667 11.946667c-3.413333 1.706667-5.12 3.413333-6.826667 6.826667-1.706667 1.706667-1.706667 5.12 0 8.533333l1.706667 3.413333 22.186667-8.533333v-1.706667c-1.706667-3.413333-3.413333-6.826667-6.826667-8.533333-1.706667-1.706667-5.12-1.706667-10.24 0zM138.24 527.36v3.413333c-1.706667 1.706667-3.413333 1.706667-5.12 5.12-1.706667 1.706667-3.413333 3.413333-3.413333 5.12v6.826667l1.706666 8.533333 20.48-1.706666v-5.12c0-1.706667 0-3.413333-1.706666-3.413334 0-1.706667-1.706667-1.706667-1.706667-3.413333 0 0-1.706667-1.706667-3.413333-1.706667h-3.413334v-3.413333l22.186667-3.413333v3.413333c-1.706667 0-1.706667 0-3.413333 1.706667-1.706667 0-3.413333 1.706667-3.413334 1.706666 0 1.706667-1.706667 1.706667-1.706666 3.413334v8.533333l15.36-1.706667h3.413333c1.706667 0 1.706667-1.706667 1.706667-1.706666V546.133333v-5.12-3.413333-3.413333c0-1.706667 0-1.706667-1.706667-3.413334 0-1.706667 0-1.706667-1.706667-1.706666-1.706667-1.706667-3.413333-1.706667-6.826666-3.413334s-5.12-1.706667-6.826667-1.706666v-3.413334l17.066667-1.706666 5.12 51.2h-3.413334v-3.413334-1.706666c0-1.706667-1.706667-1.706667-1.706666-1.706667h-1.706667l-37.546667 3.413333h-1.706666l-1.706667 1.706667v6.826667h-3.413333L124.586667 529.066667l13.653333-1.706667zM186.026667 426.666667l-3.413334 20.48c-5.12 1.706667-10.24 5.12-13.653333 6.826666-3.413333 1.706667-8.533333 5.12-13.653333 8.533334v1.706666l17.066666 1.706667h1.706667s1.706667 0 1.706667-1.706667c0 0 0-1.706667 1.706666-1.706666v-3.413334h3.413334l-3.413334 29.013334h-3.413333v-3.413334-3.413333c0-1.706667 0-1.706667-1.706667-1.706667 0 0-1.706667 0-1.706666-1.706666l-37.546667-5.12h-1.706667s-1.706667 0-1.706666 1.706666c0 0-1.706667 1.706667-1.706667 3.413334v3.413333h-3.413333l3.413333-29.013333h3.413333v6.826666c0 1.706667 0 1.706667 1.706667 1.706667h1.706667l18.773333 3.413333v-1.706666c-1.706667-1.706667-3.413333-5.12-5.12-8.533334-1.706667-3.413333-3.413333-5.12-5.12-6.826666l-5.12-5.12c-1.706667-1.706667-1.706667-1.706667-3.413333-1.706667l-1.706667 1.706667c0 1.706667 0 1.706667-1.706667 3.413333h-3.413333l3.413333-23.893333h3.413334v6.826666c0 1.706667 1.706667 3.413333 3.413333 6.826667s3.413333 5.12 5.12 6.826667c1.706667 1.706667 3.413333 5.12 5.12 8.533333 5.12-1.706667 8.533333-3.413333 13.653333-6.826667 5.12-3.413333 10.24-5.12 13.653334-8.533333 1.706667 0 1.706667-1.706667 3.413333-1.706667l3.413333-3.413333s0-1.706667 1.706667-1.706667V426.666667h1.706667zM206.506667 372.053333l-11.946667 27.306667-3.413333-1.706667s0-1.706667 1.706666-3.413333v-3.413333-1.706667l-1.706666-1.706667-34.133334-11.946666h-1.706666s-1.706667 0-1.706667 1.706666l-1.706667 1.706667c0 1.706667-1.706667 1.706667-1.706666 3.413333l-3.413334-1.706666 11.946667-27.306667 3.413333 1.706667v8.533333l1.706667 1.706667 35.84 13.653333h1.706667s1.706667 0 1.706666-1.706667l1.706667-1.706666c0-1.706667 1.706667-1.706667 1.706667-3.413334zM216.746667 262.826667s0 1.706667-1.706667 3.413333c0 1.706667-1.706667 1.706667-1.706667 3.413333s0 1.706667 1.706667 3.413334l5.12 5.12 32.426667 22.186666-3.413334 5.12-54.613333 3.413334 20.48 15.36c3.413333 1.706667 5.12 3.413333 6.826667 3.413333h3.413333c1.706667 0 1.706667 0 3.413333-1.706667s1.706667-1.706667 3.413334-1.706666l1.706666 1.706666-13.653333 18.773334-1.706667-1.706667c0-1.706667 1.706667-1.706667 1.706667-3.413333v-3.413334c0-1.706667 0-1.706667-1.706667-3.413333l-5.12-5.12-20.48-15.36c-1.706667 0-1.706667-1.706667-3.413333-1.706667h-3.413333c-1.706667 0-1.706667 0-3.413334 1.706667-1.706667 0-1.706667 1.706667-3.413333 1.706667l-1.706667-1.706667 11.946667-17.066667 47.786667-1.706666-17.066667-11.946667c-3.413333-1.706667-5.12-3.413333-6.826667-3.413333h-3.413333c-1.706667 0-1.706667 0-3.413333 1.706666s-1.706667 1.706667-3.413334 1.706667l-1.706666-1.706667 13.653333-18.773333 1.706667 1.706667zM310.613333 218.453333c-1.706667 0-1.706667 0 0 0-1.706667 1.706667-3.413333 1.706667-3.413333 3.413334v3.413333s0 1.706667 1.706667 1.706667l3.413333 5.12c0 1.706667 1.706667 1.706667 1.706667 1.706666l1.706666 1.706667c-1.706667 3.413333-3.413333 6.826667-6.826666 10.24l-10.24 10.24c-3.413333 1.706667-6.826667 5.12-10.24 5.12-3.413333 1.706667-6.826667 1.706667-10.24 1.706667-3.413333 0-6.826667-1.706667-10.24-3.413334-3.413333-1.706667-6.826667-5.12-8.533334-8.533333-3.413333-3.413333-5.12-6.826667-5.12-10.24-1.706667-3.413333-1.706667-6.826667-1.706666-10.24 0-3.413333 1.706667-6.826667 3.413333-10.24 1.706667-3.413333 5.12-6.826667 8.533333-10.24 1.706667-1.706667 5.12-3.413333 6.826667-5.12 1.706667-1.706667 5.12-1.706667 6.826667-1.706667v-3.413333l3.413333-1.706667 11.946667 15.36-3.413334 1.706667c-5.12-3.413333-10.24-5.12-13.653333-6.826667-3.413333 0-6.826667 0-10.24 3.413334-3.413333 3.413333-5.12 6.826667-5.12 11.946666 0 5.12 3.413333 10.24 8.533333 17.066667s10.24 10.24 15.36 11.946667c5.12 1.706667 8.533333 1.706667 13.653334-1.706667 1.706667-1.706667 3.413333-3.413333 3.413333-5.12 1.706667-1.706667 1.706667-3.413333 1.706667-5.12l-6.826667-8.533333-1.706667-1.706667h-3.413333s-1.706667 0-3.413333 1.706667c-1.706667 0-1.706667 1.706667-1.706667 1.706666l-1.706667-1.706666 22.186667-17.066667 3.413333 3.413333zM436.906667 136.533333s-1.706667 0-3.413334 1.706667c-1.706667 0-1.706667 1.706667-3.413333 1.706667 0 0-1.706667 1.706667-1.706667 3.413333s0 3.413333 1.706667 6.826667l5.12 18.773333c1.706667 5.12 0 10.24-1.706667 15.36-3.413333 5.12-6.826667 6.826667-13.653333 10.24-6.826667 1.706667-13.653333 1.706667-18.773333 0-5.12-1.706667-8.533333-6.826667-10.24-11.946667l-6.826667-27.306666c0-1.706667 0-1.706667-1.706667-1.706667l-1.706666-1.706667H375.466667v-3.413333l27.306666-6.826667v3.413334s-1.706667 0-1.706666 1.706666c0 0-1.706667 0-1.706667 1.706667-1.706667 0-1.706667 1.706667-1.706667 1.706667v1.706666l6.826667 25.6c1.706667 5.12 3.413333 8.533333 6.826667 10.24 3.413333 1.706667 6.826667 1.706667 10.24 1.706667 3.413333-1.706667 6.826667-3.413333 8.533333-6.826667 1.706667-3.413333 1.706667-6.826667 0-11.946666L426.666667 153.6c-1.706667-3.413333-1.706667-5.12-1.706667-6.826667 0-1.706667-1.706667-1.706667-3.413333-3.413333h-6.826667v-3.413333l22.186667-6.826667V136.533333zM539.306667 133.12h-3.413334c-1.706667 0-1.706667 0-3.413333 1.706667-1.706667 0-1.706667 1.706667-1.706667 3.413333V184.32h-6.826666l-32.426667-42.666667v32.426667c0 1.706667 1.706667 3.413333 1.706667 3.413333s1.706667 1.706667 3.413333 1.706667 3.413333 0 3.413333 1.706667v3.413333h-23.893333v-3.413333h3.413333c1.706667 0 1.706667 0 3.413334-1.706667 1.706667 0 1.706667-1.706667 1.706666-3.413333V143.36v-3.413333c0-1.706667-1.706667-1.706667-1.706666-3.413334-1.706667-1.706667-1.706667-1.706667-3.413334-1.706666s-1.706667-1.706667-3.413333-1.706667v-5.12h20.48l29.013333 37.546667V145.066667v-6.826667c0-1.706667-1.706667-3.413333-1.706666-3.413333s-1.706667-1.706667-3.413334-1.706667-3.413333 0-3.413333-1.706667v-3.413333h23.893333l-1.706666 5.12zM597.333333 197.973333l-29.013333-6.826666V187.733333h6.826667c1.706667 0 1.706667 0 1.706666-1.706666l1.706667-1.706667 10.24-37.546667v-1.706666s0-1.706667-1.706667-1.706667l-1.706666-1.706667c-1.706667 0-1.706667-1.706667-3.413334-1.706666V136.533333l29.013334 6.826667v3.413333h-6.826667c-1.706667 0-1.706667 0-1.706667 1.706667 0 0 0 1.706667-1.706666 1.706667l-8.533334 37.546666v1.706667s0 1.706667 1.706667 1.706667c0 0 1.706667 0 1.706667 1.706666 1.706667 0 1.706667 1.706667 3.413333 1.706667l-1.706667 3.413333zM704.853333 191.146667h-1.706666-6.826667c-1.706667 0-1.706667 1.706667-3.413333 1.706666-1.706667 1.706667-3.413333 3.413333-6.826667 5.12-3.413333 1.706667-6.826667 5.12-10.24 8.533334-3.413333 3.413333-6.826667 5.12-10.24 8.533333-3.413333 3.413333-6.826667 6.826667-10.24 8.533333l-6.826667-3.413333c1.706667-10.24 1.706667-18.773333 3.413334-29.013333 1.706667-10.24 1.706667-17.066667 1.706666-20.48v-3.413334c0-1.706667 0-1.706667-1.706666-3.413333l-1.706667-1.706667-1.706667-1.706666 1.706667-3.413334 25.6 13.653334-1.706667 3.413333c-3.413333-1.706667-5.12-1.706667-5.12-1.706667h-1.706666v3.413334c0 1.706667 0 6.826667-1.706667 11.946666 0 5.12-1.706667 13.653333-1.706667 25.6 5.12-5.12 10.24-8.533333 13.653334-11.946666 3.413333-3.413333 6.826667-5.12 10.24-8.533334l3.413333-3.413333 1.706667-1.706667v-3.413333c0-1.706667-1.706667-1.706667-5.12-3.413333l1.706666-3.413334 18.773334 10.24-3.413334 3.413334zM762.88 252.586667l-1.706667-1.706667c1.706667-1.706667 1.706667-5.12 1.706667-6.826667 0-3.413333 0-5.12-1.706667-6.826666l-1.706666-1.706667-1.706667-1.706667-6.826667-5.12-13.653333 15.36 3.413333 3.413334c1.706667 1.706667 1.706667 1.706667 3.413334 1.706666h3.413333s1.706667 0 3.413333-1.706666c1.706667 0 3.413333-1.706667 3.413334-1.706667l1.706666 1.706667-15.36 17.066666-1.706666-1.706666c0-1.706667 1.706667-1.706667 1.706666-3.413334s1.706667-3.413333 1.706667-3.413333c0-1.706667 0-1.706667-1.706667-3.413333 0-1.706667-1.706667-1.706667-3.413333-3.413334l-3.413333-3.413333-10.24 11.946667c-1.706667 1.706667-1.706667 1.706667-1.706667 3.413333v1.706667s0 1.706667 1.706667 1.706666c0 1.706667 1.706667 1.706667 3.413333 3.413334l1.706667 1.706666c1.706667 0 1.706667 1.706667 3.413333 1.706667 0 0 1.706667 1.706667 3.413333 1.706667h1.706667c1.706667 0 3.413333 0 6.826667-1.706667s5.12-1.706667 6.826666-1.706667v3.413334l-11.946666 11.946666-37.546667-34.133333 1.706667-1.706667 1.706666 1.706667c1.706667 0 1.706667 1.706667 1.706667 1.706667h1.706667s1.706667 0 1.706666-1.706667l25.6-29.013333 1.706667-1.706667v-3.413333s0-1.706667-1.706667-1.706667c0-1.706667-1.706667-1.706667-1.706666-1.706667l1.706666-1.706666 35.84 32.426666-8.533333 8.533334zM791.893333 360.106667l-11.946666-17.066667c3.413333-6.826667 5.12-10.24 6.826666-15.36 1.706667-3.413333 3.413333-8.533333 5.12-13.653333l-1.706666-1.706667-13.653334 8.533333-1.706666 1.706667v3.413333c0 1.706667 0 1.706667 1.706666 1.706667l-1.706666 1.706667-17.066667-22.186667 1.706667-1.706667 1.706666 1.706667c0 1.706667 1.706667 1.706667 1.706667 1.706667 1.706667 0 1.706667 1.706667 1.706667 0 0 0 1.706667 0 1.706666-1.706667l32.426667-20.48 1.706667-1.706667v-3.413333c0-1.706667 0-1.706667-1.706667-3.413333 0-1.706667 0-1.706667-1.706667-1.706667l1.706667-1.706667 17.066667 25.6c3.413333 5.12 5.12 10.24 5.12 15.36 0 3.413333-1.706667 6.826667-5.12 10.24-3.413333 1.706667-6.826667 3.413333-10.24 1.706667-3.413333 0-6.826667-1.706667-10.24-5.12-1.706667 3.413333-1.706667 5.12-3.413334 8.533333s-1.706667 6.826667-3.413333 10.24c0 1.706667 0 3.413333-1.706667 5.12v8.533334l5.12 5.12z m18.773334-44.373334c3.413333-1.706667 5.12-3.413333 5.12-6.826666s0-5.12-3.413334-8.533334l-1.706666-1.706666-18.773334 11.946666 1.706667 1.706667c1.706667 3.413333 5.12 5.12 6.826667 5.12 3.413333 1.706667 6.826667 1.706667 10.24-1.706667zM807.253333 404.48c-1.706667-3.413333-1.706667-6.826667-1.706666-8.533333v-8.533334l-3.413334-1.706666-1.706666-3.413334L819.2 375.466667l1.706667 3.413333-5.12 5.12c-1.706667 1.706667-3.413333 3.413333-3.413334 5.12-1.706667 1.706667-1.706667 3.413333-1.706666 6.826667v6.826666c1.706667 3.413333 3.413333 5.12 5.12 6.826667 1.706667 1.706667 5.12 1.706667 6.826666 0 1.706667 0 3.413333-1.706667 3.413334-3.413333s1.706667-5.12 1.706666-8.533334v-6.826666-5.12c0-3.413333 1.706667-6.826667 3.413334-10.24 1.706667-1.706667 5.12-5.12 8.533333-5.12 1.706667 0 3.413333-1.706667 6.826667 0 1.706667 0 3.413333 1.706667 6.826666 1.706666l5.12 5.12c1.706667 1.706667 3.413333 5.12 3.413334 6.826667 1.706667 3.413333 1.706667 5.12 1.706666 8.533333v6.826667l3.413334 1.706667 1.706666 3.413333-17.066666 6.826667-1.706667-3.413334 5.12-5.12c1.706667-1.706667 3.413333-3.413333 3.413333-5.12 1.706667-1.706667 1.706667-3.413333 1.706667-5.12v-5.12c-1.706667-3.413333-1.706667-5.12-5.12-5.12-1.706667-1.706667-3.413333-1.706667-6.826667 0-1.706667 0-3.413333 1.706667-5.12 3.413334 0 1.706667-1.706667 5.12-1.706666 8.533333v11.946667c0 3.413333-1.706667 6.826667-3.413334 10.24-1.706667 3.413333-5.12 5.12-8.533333 5.12-1.706667 0-5.12 1.706667-6.826667 0-1.706667 0-5.12-1.706667-6.826666-1.706667l-5.12-5.12c-1.706667-3.413333-3.413333-6.826667-3.413334-10.24zM824.32 488.106667l-3.413333-30.72h3.413333v6.826666c0 1.706667 1.706667 1.706667 1.706667 1.706667h1.706666l37.546667-3.413333h1.706667l1.706666-1.706667v-3.413333-3.413334h3.413334l3.413333 30.72h-3.413333v-3.413333c0-1.706667 0-1.706667-1.706667-3.413333 0-1.706667-1.706667-1.706667-1.706667-1.706667h-1.706666l-37.546667 3.413333h-1.706667l-1.706666 1.706667v6.826667h-1.706667zM858.453333 575.146667v-3.413334c1.706667 0 5.12-1.706667 8.533334-3.413333s5.12-3.413333 5.12-5.12v-3.413333V554.666667l-42.666667-5.12h-1.706667s-1.706667 0-1.706666 1.706666c0 0 0 1.706667-1.706667 3.413334 0 1.706667 0 1.706667-1.706667 3.413333H819.2l3.413333-30.72h3.413334v6.826667c0 1.706667 0 1.706667 1.706666 1.706666h1.706667l42.666667 5.12v-1.706666-3.413334-3.413333c0-1.706667-1.706667-3.413333-3.413334-5.12-1.706667-1.706667-5.12-3.413333-6.826666-5.12v-3.413333l15.36 1.706666-6.826667 52.906667-11.946667 1.706667zM839.68 669.013333v-1.706666-1.706667c0-1.706667 0-1.706667-1.706667-3.413333 0-1.706667-1.706667-1.706667-1.706666-3.413334-1.706667-1.706667-3.413333-5.12-5.12-6.826666-1.706667-3.413333-3.413333-5.12-6.826667-8.533334l-3.413333-3.413333c-1.706667 0-3.413333-1.706667-5.12-1.706667l-6.826667-6.826666h-1.706667s-1.706667 0-1.706666 1.706666l-1.706667 1.706667c0 1.706667-1.706667 1.706667-1.706667 3.413333l-3.413333-1.706666 10.24-29.013334 3.413333 1.706667v8.533333l1.706667 1.706667 8.533333 3.413333h8.533334c3.413333 0 6.826667-1.706667 11.946666-1.706666 3.413333 0 6.826667-1.706667 10.24-1.706667 1.706667 0 3.413333 0 3.413334-1.706667 1.706667 0 1.706667-1.706667 3.413333-1.706666l1.706667-1.706667 1.706666-1.706667 3.413334 1.706667-13.653334 27.306667-3.413333-1.706667c1.706667-3.413333 1.706667-5.12 1.706667-5.12v-1.706667h-6.826667c-1.706667 0-5.12 0-8.533333 1.706667-3.413333 0-6.826667 1.706667-11.946667 1.706667 5.12 6.826667 8.533333 11.946667 11.946667 15.36 1.706667 3.413333 3.413333 5.12 5.12 5.12h1.706666s1.706667-1.706667 3.413334-5.12l3.413333 1.706666-6.826667 18.773334-3.413333-3.413334z" fill="#9A0000" p-id="3630"></path><path d="M781.653333 506.88c0 155.306667-124.586667 279.893333-279.893333 279.893333-155.306667 0-279.893333-124.586667-279.893333-279.893333 0-155.306667 124.586667-279.893333 279.893333-279.893333 155.306667 0 279.893333 124.586667 279.893333 279.893333zM460.8 271.36c-11.946667 0-22.186667 10.24-22.186667 22.186667v29.013333c-23.893333 5.12-46.08 13.653333-69.973333 25.6-27.306667 13.653333-52.906667 30.72-75.093333 51.2-8.533333 6.826667-10.24 20.48-1.706667 30.72 8.533333 8.533333 20.48 10.24 30.72 1.706667 35.84-30.72 78.506667-52.906667 117.76-64.853334v49.493334c-27.306667 8.533333-54.613333 23.893333-81.92 46.08-29.013333 23.893333-56.32 56.32-81.92 93.866666-3.413333 1.706667-3.413333 6.826667-3.413333 10.24 0 6.826667 3.413333 13.653333 10.24 18.773334 10.24 6.826667 23.893333 3.413333 29.013333-6.826667 22.186667-34.133333 46.08-63.146667 73.386667-83.626667 27.306667-22.186667 56.32-37.546667 81.92-42.666666 11.946667-1.706667 17.066667-13.653333 17.066666-20.48v-11.946667-126.293333c-1.706667-11.946667-11.946667-22.186667-23.893333-22.186667z m59.733333 22.186667v139.946666c0 6.826667 5.12 17.066667 17.066667 20.48 25.6 5.12 54.613333 20.48 81.92 42.666667 25.6 22.186667 51.2 49.493333 73.386667 83.626667 6.826667 10.24 20.48 11.946667 29.013333 6.826666 6.826667-3.413333 10.24-10.24 10.24-18.773333 0-3.413333-1.706667-8.533333-3.413333-11.946667-23.893333-37.546667-51.2-69.973333-81.92-93.866666-25.6-22.186667-52.906667-37.546667-81.92-46.08v-49.493334c40.96 10.24 81.92 34.133333 117.76 64.853334 8.533333 6.826667 22.186667 6.826667 30.72-1.706667s6.826667-22.186667-1.706667-30.72c-22.186667-20.48-49.493333-37.546667-75.093333-51.2-23.893333-11.946667-46.08-20.48-69.973334-25.6v-29.013333c0-11.946667-10.24-22.186667-22.186666-22.186667-13.653333 0-23.893333 10.24-23.893334 22.186667zM675.84 648.533333c-8.533333-22.186667-20.48-40.96-30.72-59.733333-11.946667-18.773333-25.6-34.133333-39.253333-47.786667-15.36-13.653333-30.72-25.6-47.786667-32.426666-10.24-5.12-22.186667-8.533333-34.133333-10.24v-13.653334c0-11.946667-10.24-22.186667-22.186667-22.186666-11.946667 0-22.186667 10.24-22.186667 22.186666v13.653334c-11.946667 1.706667-22.186667 5.12-34.133333 10.24-17.066667 6.826667-32.426667 18.773333-47.786667 32.426666-13.653333 13.653333-27.306667 29.013333-39.253333 47.786667-11.946667 17.066667-22.186667 37.546667-30.72 59.733333-5.12 10.24 0 23.893333 11.946667 27.306667 10.24 5.12 23.893333 0 27.306666-11.946667 17.066667-39.253333 37.546667-71.68 61.44-93.866666 17.066667-15.36 34.133333-25.6 51.2-30.72v34.133333c0 11.946667-8.533333 17.066667-13.653333 18.773333-1.706667 0-3.413333 1.706667-5.12 3.413334-8.533333 5.12-17.066667 13.653333-27.306667 25.6-15.36 20.48-29.013333 47.786667-34.133333 78.506666-1.706667 11.946667 5.12 22.186667 17.066667 25.6 11.946667 1.706667 22.186667-5.12 25.6-17.066666 5.12-23.893333 15.36-46.08 27.306666-61.44 6.826667-8.533333 18.773333-20.48 32.426667-20.48 15.36 0 27.306667 13.653333 32.426667 20.48 11.946667 15.36 22.186667 37.546667 27.306666 61.44 1.706667 11.946667 13.653333 18.773333 25.6 17.066666 11.946667-1.706667 18.773333-13.653333 17.066667-25.6-6.826667-30.72-18.773333-58.026667-34.133333-78.506666-8.533333-11.946667-18.773333-18.773333-25.6-25.6-1.706667 0-3.413333-1.706667-5.12-3.413334-3.413333-1.706667-13.653333-6.826667-13.653334-18.773333v-34.133333c17.066667 5.12 35.84 15.36 51.2 30.72 23.893333 22.186667 44.373333 54.613333 61.44 93.866666 5.12 10.24 17.066667 15.36 27.306667 11.946667 10.24-3.413333 15.36-15.36 10.24-27.306667z" fill="#9A0000" p-id="3631"></path><path d="M1182.72 790.186667c0 6.826667-1.706667 13.653333-3.413333 18.773333-3.413333 5.12-6.826667 10.24-11.946667 13.653333-5.12 3.413333-10.24 6.826667-15.36 6.826667-5.12 1.706667-11.946667 1.706667-17.066667 1.706667h-15.36V870.4c0 1.706667 0 3.413333 1.706667 5.12 0 1.706667 1.706667 3.413333 5.12 3.413333 1.706667 0 3.413333 0 5.12 1.706667h8.533333v6.826667h-56.32v-6.826667h6.826667c3.413333 0 5.12 0 5.12-1.706667 1.706667 0 3.413333-1.706667 3.413333-3.413333s1.706667-3.413333 1.706667-5.12v-95.573333c0-1.706667 0-3.413333-1.706667-5.12 0-1.706667-1.706667-3.413333-5.12-3.413334-1.706667 0-5.12-1.706667-6.826666-1.706666h-5.12v-6.826667h59.733333c11.946667 0 22.186667 3.413333 29.013333 8.533333 6.826667 6.826667 11.946667 15.36 11.946667 23.893334z m-29.013333 22.186666c1.706667-3.413333 3.413333-6.826667 3.413333-8.533333 0-3.413333 1.706667-6.826667 1.706667-8.533333 0-3.413333 0-6.826667-1.706667-10.24 0-3.413333-1.706667-6.826667-3.413333-10.24-1.706667-3.413333-5.12-5.12-8.533334-6.826667-3.413333-1.706667-8.533333-1.706667-13.653333-1.706667h-13.653333v58.026667h10.24c6.826667 0 11.946667-1.706667 15.36-3.413333 5.12-1.706667 8.533333-5.12 10.24-8.533334zM1307.306667 851.626667l-1.706667 39.253333h-109.226667v-6.826667h6.826667c3.413333 0 5.12 0 6.826667-1.706666 1.706667-1.706667 3.413333-1.706667 3.413333-3.413334s1.706667-3.413333 1.706667-5.12v-93.866666c0-1.706667 0-3.413333-1.706667-5.12 0-1.706667-1.706667-3.413333-3.413333-3.413334s-3.413333-1.706667-6.826667-1.706666-5.12-1.706667-6.826667-1.706667v-6.826667H1297.066667v30.72h-6.826667c-1.706667-5.12-3.413333-10.24-8.533333-15.36-3.413333-5.12-8.533333-8.533333-11.946667-8.533333h-35.84v51.2h15.36c5.12 0 8.533333 0 10.24-1.706667 1.706667-1.706667 3.413333-1.706667 5.12-5.12 1.706667-1.706667 1.706667-3.413333 3.413333-6.826666s1.706667-5.12 1.706667-8.533334h6.826667v51.2h-6.826667c0-3.413333-1.706667-6.826667-1.706667-10.24-1.706667-3.413333-1.706667-5.12-3.413333-6.826666-1.706667-1.706667-3.413333-3.413333-6.826667-5.12-1.706667 0-5.12-1.706667-10.24-1.706667h-15.36v47.786667c0 1.706667 1.706667 3.413333 3.413334 5.12 1.706667 1.706667 3.413333 1.706667 6.826666 1.706666h29.013334c1.706667 0 5.12 0 6.826666-1.706666 1.706667 0 3.413333-1.706667 5.12-3.413334 3.413333-3.413333 5.12-6.826667 8.533334-13.653333s5.12-10.24 5.12-13.653333h10.24zM1442.133333 889.173333h-37.546666c-6.826667-10.24-15.36-22.186667-23.893334-32.426666-8.533333-10.24-17.066667-20.48-27.306666-30.72h-1.706667V870.4c0 1.706667 0 3.413333 1.706667 5.12 0 1.706667 1.706667 3.413333 3.413333 3.413333s3.413333 1.706667 5.12 1.706667c3.413333 0 5.12 1.706667 6.826667 1.706667v6.826666H1314.133333v-6.826666h6.826667c3.413333 0 5.12 0 5.12-1.706667 1.706667 0 3.413333-1.706667 3.413333-3.413333s1.706667-3.413333 1.706667-5.12v-95.573334c0-1.706667 0-3.413333-1.706667-5.12 0-1.706667-1.706667-3.413333-3.413333-3.413333s-3.413333-1.706667-5.12-1.706667c-1.706667 0-5.12-1.706667-6.826667-1.706666v-6.826667h54.613334v6.826667h-6.826667c-1.706667 0-5.12 1.706667-5.12 1.706666-1.706667 0-3.413333 1.706667-3.413333 3.413334s-1.706667 3.413333-1.706667 5.12v46.08h1.706667c5.12-5.12 10.24-10.24 17.066666-15.36l15.36-15.36c5.12-5.12 8.533333-10.24 10.24-13.653334 1.706667-3.413333 3.413333-6.826667 3.413334-8.533333 0-1.706667 0-1.706667-1.706667-1.706667s-1.706667-1.706667-3.413333-1.706666h-8.533334v-6.826667h49.493334v6.826667H1433.6 1428.48h-3.413333c-1.706667 0-5.12 1.706667-6.826667 1.706666-1.706667 1.706667-3.413333 1.706667-5.12 3.413334-6.826667 6.826667-13.653333 15.36-20.48 22.186666-6.826667 8.533333-13.653333 15.36-20.48 20.48 8.533333 10.24 17.066667 20.48 23.893333 27.306667 6.826667 6.826667 11.946667 15.36 18.773334 23.893333 3.413333 3.413333 5.12 6.826667 8.533333 8.533334 3.413333 1.706667 5.12 3.413333 6.826667 5.12 1.706667 0 3.413333 1.706667 6.826666 1.706666h6.826667v10.24zM1508.693333 889.173333h-59.733333v-6.826666h6.826667c3.413333 0 5.12 0 6.826666-1.706667 1.706667 0 3.413333-1.706667 5.12-3.413333 1.706667-1.706667 1.706667-3.413333 1.706667-5.12v-95.573334c0-1.706667 0-3.413333-1.706667-5.12 0-1.706667-1.706667-3.413333-5.12-3.413333-1.706667 0-3.413333-1.706667-6.826666-1.706667s-5.12-1.706667-6.826667-1.706666v-6.826667h59.733333v6.826667H1501.866667c-3.413333 0-5.12 1.706667-6.826667 1.706666-1.706667 0-3.413333 1.706667-5.12 3.413334 0 1.706667-1.706667 3.413333-1.706667 5.12V870.4c0 1.706667 0 3.413333 1.706667 5.12 1.706667 1.706667 1.706667 3.413333 5.12 3.413333 1.706667 0 3.413333 1.706667 6.826667 1.706667s5.12 1.706667 6.826666 1.706667v6.826666zM1655.466667 764.586667c-1.706667 0-5.12 0-8.533334 1.706666s-6.826667 1.706667-8.533333 3.413334c-1.706667 1.706667-3.413333 5.12-5.12 8.533333 0 5.12-1.706667 10.24-1.706667 17.066667v95.573333h-8.533333l-80.213333-107.52v68.266667c0 6.826667 0 13.653333 1.706666 17.066666 1.706667 3.413333 1.706667 6.826667 5.12 8.533334 1.706667 1.706667 5.12 3.413333 8.533334 3.413333 5.12 1.706667 6.826667 1.706667 8.533333 1.706667v6.826666h-52.906667v-6.826666c1.706667 0 5.12 0 8.533334-1.706667s6.826667-1.706667 6.826666-3.413333c1.706667-1.706667 3.413333-5.12 5.12-8.533334 0-3.413333 1.706667-10.24 1.706667-18.773333V785.066667c0-3.413333 0-5.12-1.706667-8.533334s-1.706667-5.12-3.413333-6.826666c-1.706667-1.706667-5.12-3.413333-8.533333-5.12-3.413333-1.706667-6.826667-1.706667-8.533334-1.706667v-6.826667h37.546667l73.386667 100.693334v-63.146667c0-6.826667 0-13.653333-1.706667-17.066667-1.706667-3.413333-1.706667-6.826667-3.413333-8.533333-1.706667-1.706667-5.12-1.706667-8.533334-3.413333s-6.826667-1.706667-8.533333-1.706667v-6.826667H1655.466667v8.533334zM1793.706667 836.266667c-1.706667 0-3.413333 0-6.826667 1.706666-1.706667 0-5.12 1.706667-6.826667 1.706667-1.706667 1.706667-3.413333 1.706667-3.413333 3.413333s-1.706667 3.413333-1.706667 5.12v32.426667c-8.533333 3.413333-17.066667 6.826667-23.893333 8.533333-8.533333 1.706667-15.36 3.413333-23.893333 3.413334-8.533333 0-17.066667-1.706667-23.893334-5.12-8.533333-3.413333-15.36-6.826667-20.48-13.653334-5.12-5.12-10.24-13.653333-13.653333-22.186666-3.413333-8.533333-5.12-17.066667-5.12-29.013334 0-10.24 1.706667-18.773333 5.12-27.306666 3.413333-8.533333 8.533333-15.36 13.653333-22.186667 5.12-6.826667 13.653333-10.24 20.48-13.653333 8.533333-3.413333 17.066667-5.12 25.6-5.12 6.826667 0 13.653333 1.706667 18.773334 3.413333 5.12 1.706667 10.24 3.413333 13.653333 6.826667l3.413333-6.826667h6.826667v46.08h-6.826667l-5.12-15.36c-1.706667-5.12-5.12-8.533333-6.826666-13.653333-3.413333-3.413333-6.826667-6.826667-10.24-8.533334-5.12-1.706667-10.24-3.413333-15.36-3.413333-6.826667 0-11.946667 1.706667-17.066667 3.413333-5.12 3.413333-10.24 6.826667-13.653333 11.946667-3.413333 5.12-6.826667 11.946667-8.533334 18.773333-1.706667 6.826667-3.413333 17.066667-3.413333 25.6s1.706667 17.066667 3.413333 23.893334c1.706667 6.826667 5.12 13.653333 8.533334 18.773333 3.413333 5.12 8.533333 10.24 13.653333 13.653333 5.12 3.413333 11.946667 5.12 18.773333 5.12 5.12 0 10.24 0 15.36-1.706666 5.12-1.706667 6.826667-3.413333 10.24-5.12v-10.24-15.36c0-3.413333 0-5.12-1.706666-6.826667 0-1.706667-1.706667-3.413333-5.12-5.12-1.706667-1.706667-5.12-1.706667-8.533334-1.706667s-6.826667 0-8.533333-1.706666v-6.826667h58.026667v6.826667zM1983.146667 764.586667c-1.706667 0-5.12 0-6.826667 1.706666-3.413333 0-6.826667 1.706667-8.533333 3.413334-1.706667 1.706667-3.413333 5.12-5.12 8.533333 0 5.12-1.706667 10.24-1.706667 17.066667v56.32c0 6.826667-1.706667 13.653333-5.12 18.773333-3.413333 5.12-6.826667 10.24-11.946667 13.653333-5.12 3.413333-10.24 5.12-15.36 6.826667-5.12 1.706667-10.24 1.706667-15.36 1.706667-8.533333 0-15.36-1.706667-20.48-3.413334-6.826667-1.706667-11.946667-5.12-15.36-8.533333-3.413333-3.413333-6.826667-6.826667-8.533333-11.946667-1.706667-5.12-3.413333-8.533333-3.413333-13.653333v-76.8c0-1.706667 0-3.413333-1.706667-5.12 0-1.706667-1.706667-3.413333-5.12-3.413333-1.706667 0-3.413333-1.706667-5.12-1.706667-1.706667 0-5.12 0-5.12-1.706667v-6.826666h54.613333v6.826666h-6.826666c-3.413333 0-5.12 1.706667-5.12 1.706667-1.706667 0-3.413333 1.706667-3.413334 3.413333s-1.706667 3.413333-1.706666 5.12v71.68c0 3.413333 0 6.826667 1.706666 10.24 0 3.413333 1.706667 6.826667 5.12 10.24 1.706667 3.413333 5.12 6.826667 10.24 8.533334 3.413333 1.706667 10.24 3.413333 17.066667 3.413333s11.946667-1.706667 17.066667-3.413333c5.12-1.706667 8.533333-5.12 10.24-8.533334 1.706667-3.413333 5.12-6.826667 5.12-10.24 1.706667-3.413333 1.706667-6.826667 1.706666-10.24v-54.613333c0-6.826667 0-11.946667-1.706666-17.066667-1.706667-5.12-1.706667-6.826667-5.12-8.533333-1.706667-1.706667-5.12-3.413333-8.533334-3.413333s-6.826667-1.706667-8.533333-1.706667v-6.826667h52.906667v8.533334zM2129.92 764.586667c-1.706667 0-5.12 0-8.533333 1.706666s-6.826667 1.706667-8.533334 3.413334c-1.706667 1.706667-3.413333 5.12-5.12 8.533333 0 5.12-1.706667 10.24-1.706666 17.066667v95.573333h-8.533334l-80.213333-107.52v68.266667c0 6.826667 0 13.653333 1.706667 17.066666 1.706667 3.413333 1.706667 6.826667 5.12 8.533334 1.706667 1.706667 5.12 3.413333 8.533333 3.413333 5.12 1.706667 6.826667 1.706667 8.533333 1.706667v6.826666h-52.906666v-6.826666c1.706667 0 5.12 0 8.533333-1.706667s6.826667-1.706667 6.826667-3.413333c1.706667-1.706667 3.413333-5.12 5.12-8.533334 0-3.413333 1.706667-10.24 1.706666-18.773333V785.066667c0-3.413333 0-5.12-1.706666-8.533334s-1.706667-5.12-3.413334-6.826666c-1.706667-1.706667-5.12-3.413333-8.533333-5.12-3.413333-1.706667-6.826667-1.706667-8.533333-1.706667v-6.826667h37.546666l73.386667 100.693334v-63.146667c0-6.826667 0-13.653333-1.706667-17.066667-1.706667-3.413333-1.706667-6.826667-3.413333-8.533333-1.706667-1.706667-5.12-1.706667-8.533333-3.413333s-6.826667-1.706667-8.533334-1.706667v-6.826667h52.906667v8.533334zM2194.773333 889.173333h-59.733333v-6.826666h6.826667c3.413333 0 5.12 0 6.826666-1.706667 1.706667 0 3.413333-1.706667 5.12-3.413333 1.706667-1.706667 1.706667-3.413333 1.706667-5.12v-95.573334c0-1.706667 0-3.413333-1.706667-5.12 0-1.706667-1.706667-3.413333-5.12-3.413333-1.706667 0-3.413333-1.706667-6.826666-1.706667s-5.12-1.706667-6.826667-1.706666v-6.826667h59.733333v6.826667h-6.826666c-3.413333 0-5.12 1.706667-6.826667 1.706666-1.706667 0-3.413333 1.706667-5.12 3.413334 0 1.706667-1.706667 3.413333-1.706667 5.12V870.4c0 1.706667 0 3.413333 1.706667 5.12 1.706667 1.706667 1.706667 3.413333 5.12 3.413333 1.706667 0 3.413333 1.706667 6.826667 1.706667s5.12 1.706667 6.826666 1.706667v6.826666zM2333.013333 764.586667c-1.706667 0-3.413333 0-5.12 1.706666-1.706667 0-3.413333 1.706667-5.12 1.706667l-5.12 5.12c-1.706667 1.706667-1.706667 5.12-3.413333 6.826667-3.413333 10.24-10.24 25.6-18.773333 46.08-8.533333 20.48-17.066667 42.666667-25.6 64.853333h-8.533334c-8.533333-23.893333-17.066667-46.08-25.6-68.266667-8.533333-22.186667-13.653333-37.546667-17.066666-44.373333 0-1.706667-1.706667-3.413333-3.413334-5.12-1.706667-1.706667-3.413333-3.413333-5.12-3.413333-1.706667-1.706667-3.413333-1.706667-5.12-1.706667-1.706667 0-3.413333 0-5.12-1.706667v-6.826666h54.613334v6.826666c-5.12 0-8.533333 0-11.946667 1.706667-3.413333 0-5.12 1.706667-5.12 3.413333v3.413334c1.706667 6.826667 5.12 15.36 11.946667 29.013333 5.12 13.653333 11.946667 32.426667 22.186666 58.026667 5.12-11.946667 10.24-25.6 15.36-40.96 6.826667-15.36 10.24-25.6 11.946667-32.426667 1.706667-5.12 3.413333-10.24 3.413333-11.946667v-5.12c0-1.706667 0-3.413333-1.706666-3.413333-1.706667-1.706667-3.413333-1.706667-5.12-1.706667-1.706667 0-3.413333-1.706667-6.826667-1.706666h-6.826667v-6.826667h49.493334v6.826667zM2449.066667 851.626667l-1.706667 39.253333H2338.133333v-6.826667h6.826667c3.413333 0 5.12 0 6.826667-1.706666 1.706667-1.706667 3.413333-1.706667 3.413333-3.413334s1.706667-3.413333 1.706667-5.12v-93.866666c0-1.706667 0-3.413333-1.706667-5.12 0-1.706667-1.706667-3.413333-3.413333-3.413334s-3.413333-1.706667-6.826667-1.706666-5.12-1.706667-6.826667-1.706667v-6.826667h100.693334v30.72h-6.826667c-1.706667-5.12-3.413333-10.24-8.533333-15.36-3.413333-5.12-8.533333-8.533333-11.946667-8.533333h-35.84v51.2h15.36c5.12 0 8.533333 0 10.24-1.706667 1.706667-1.706667 3.413333-1.706667 5.12-5.12 1.706667-1.706667 1.706667-3.413333 3.413333-6.826666s1.706667-5.12 1.706667-8.533334h6.826667v51.2h-6.826667c0-3.413333-1.706667-6.826667-1.706667-10.24-1.706667-3.413333-1.706667-5.12-3.413333-6.826666-1.706667-1.706667-3.413333-3.413333-6.826667-5.12-1.706667 0-5.12-1.706667-10.24-1.706667h-15.36v47.786667c0 1.706667 1.706667 3.413333 3.413334 5.12 1.706667 1.706667 3.413333 1.706667 6.826666 1.706666h29.013334c1.706667 0 5.12 0 6.826666-1.706666 1.706667 0 3.413333-1.706667 5.12-3.413334 3.413333-3.413333 5.12-6.826667 8.533334-13.653333s5.12-10.24 5.12-13.653333h10.24zM2590.72 889.173333h-35.84c-8.533333-11.946667-15.36-22.186667-20.48-32.426666-6.826667-8.533333-13.653333-18.773333-20.48-27.306667h-13.653333V870.4c0 1.706667 0 3.413333 1.706666 5.12 0 1.706667 1.706667 3.413333 5.12 3.413333 1.706667 0 3.413333 0 5.12 1.706667h6.826667v6.826667h-54.613333v-6.826667h6.826666c3.413333 0 5.12 0 5.12-1.706667 1.706667 0 3.413333-1.706667 3.413334-3.413333s1.706667-3.413333 1.706666-5.12v-95.573333c0-1.706667 0-3.413333-1.706666-5.12 0-1.706667-1.706667-3.413333-3.413334-3.413334s-3.413333-1.706667-5.12-1.706666c-1.706667 0-5.12 0-6.826666-1.706667v-6.826667h61.44c5.12 0 10.24 0 15.36 1.706667 5.12 1.706667 8.533333 3.413333 13.653333 5.12 3.413333 1.706667 6.826667 5.12 8.533333 10.24 1.706667 3.413333 3.413333 8.533333 3.413334 13.653333 0 5.12 0 10.24-1.706667 13.653334-1.706667 3.413333-3.413333 6.826667-6.826667 10.24-3.413333 3.413333-6.826667 5.12-10.24 6.826666-3.413333 1.706667-8.533333 3.413333-13.653333 5.12 6.826667 8.533333 11.946667 15.36 15.36 22.186667 3.413333 5.12 10.24 13.653333 15.36 22.186667 3.413333 3.413333 5.12 6.826667 6.826667 8.533333 1.706667 1.706667 5.12 3.413333 6.826666 3.413333 1.706667 0 3.413333 1.706667 6.826667 1.706667h6.826667v8.533333z m-49.493333-97.28c0-8.533333-1.706667-13.653333-6.826667-18.773333-5.12-5.12-11.946667-6.826667-18.773333-6.826667h-15.36v56.32h11.946666c8.533333 0 15.36-3.413333 22.186667-8.533333 5.12-5.12 6.826667-13.653333 6.826667-22.186667zM2677.76 829.44c3.413333 3.413333 5.12 6.826667 6.826667 10.24 1.706667 3.413333 1.706667 8.533333 1.706666 13.653333 0 11.946667-5.12 20.48-13.653333 29.013334-8.533333 6.826667-18.773333 11.946667-32.426667 11.946666-5.12 0-11.946667-1.706667-17.066666-3.413333-5.12-1.706667-10.24-3.413333-15.36-6.826667l-3.413334 6.826667h-6.826666l-1.706667-44.373333h6.826667l5.12 15.36c1.706667 5.12 5.12 8.533333 8.533333 11.946666 3.413333 3.413333 6.826667 6.826667 11.946667 8.533334 5.12 1.706667 8.533333 3.413333 15.36 3.413333 5.12 0 8.533333 0 11.946666-1.706667 3.413333-1.706667 5.12-3.413333 8.533334-5.12 1.706667-1.706667 3.413333-5.12 5.12-6.826666 1.706667-3.413333 1.706667-5.12 1.706666-10.24s-1.706667-10.24-5.12-15.36c-3.413333-5.12-6.826667-8.533333-13.653333-10.24-3.413333-1.706667-8.533333-3.413333-13.653333-5.12-5.12-1.706667-10.24-3.413333-13.653334-5.12-6.826667-3.413333-13.653333-8.533333-17.066666-13.653334-3.413333-5.12-6.826667-11.946667-6.826667-20.48 0-5.12 1.706667-10.24 3.413333-13.653333 1.706667-5.12 5.12-8.533333 8.533334-11.946667 3.413333-3.413333 8.533333-5.12 11.946666-6.826666 5.12-1.706667 10.24-3.413333 15.36-3.413334 6.826667 0 11.946667 1.706667 17.066667 3.413334 5.12 1.706667 8.533333 3.413333 13.653333 6.826666l3.413334-6.826666h6.826666v44.373333h-6.826666c-1.706667-5.12-3.413333-10.24-5.12-13.653333-1.706667-5.12-3.413333-8.533333-6.826667-11.946667-3.413333-3.413333-5.12-6.826667-10.24-8.533333-3.413333-1.706667-8.533333-3.413333-13.653333-3.413334-5.12 0-10.24 1.706667-15.36 5.12-3.413333 3.413333-6.826667 8.533333-6.826667 13.653334 0 5.12 1.706667 10.24 3.413333 13.653333 3.413333 3.413333 6.826667 6.826667 11.946667 8.533333 5.12 1.706667 8.533333 3.413333 13.653333 5.12 5.12 1.706667 8.533333 3.413333 11.946667 5.12l10.24 5.12c3.413333 1.706667 6.826667 3.413333 10.24 6.826667zM2759.68 889.173333h-59.733333v-6.826666h6.826666c3.413333 0 5.12 0 6.826667-1.706667 1.706667 0 3.413333-1.706667 5.12-3.413333 1.706667-1.706667 1.706667-3.413333 1.706667-5.12v-95.573334c0-1.706667 0-3.413333-1.706667-5.12 0-1.706667-1.706667-3.413333-5.12-3.413333-1.706667 0-3.413333-1.706667-6.826667-1.706667s-5.12-1.706667-6.826666-1.706666v-6.826667h59.733333v6.826667h-6.826667c-3.413333 0-5.12 1.706667-6.826666 1.706666-1.706667 0-3.413333 1.706667-5.12 3.413334 0 1.706667-1.706667 3.413333-1.706667 5.12V870.4c0 1.706667 0 3.413333 1.706667 5.12 1.706667 1.706667 1.706667 3.413333 5.12 3.413333 1.706667 0 3.413333 1.706667 6.826666 1.706667s5.12 1.706667 6.826667 1.706667v6.826666zM2882.56 793.6h-6.826667c0-1.706667-1.706667-5.12-3.413333-8.533333s-3.413333-5.12-5.12-8.533334c-1.706667-3.413333-3.413333-5.12-6.826667-6.826666-1.706667-1.706667-5.12-3.413333-6.826666-3.413334H2833.066667V870.4c0 1.706667 0 3.413333 1.706666 5.12 1.706667 1.706667 1.706667 3.413333 5.12 3.413333 1.706667 0 3.413333 1.706667 6.826667 1.706667s6.826667 1.706667 8.533333 1.706667v6.826666h-61.44v-6.826666h8.533334c3.413333 0 6.826667 0 6.826666-1.706667 1.706667 0 3.413333-1.706667 5.12-3.413333 1.706667-1.706667 1.706667-3.413333 1.706667-6.826667v-105.813333h-20.48c-1.706667 0-3.413333 1.706667-6.826667 3.413333-1.706667 1.706667-3.413333 5.12-6.826666 6.826667-1.706667 3.413333-3.413333 5.12-5.12 8.533333-1.706667 3.413333-1.706667 5.12-3.413334 8.533333h-6.826666v-35.84h114.346666v37.546667zM3017.386667 764.586667c-1.706667 0-3.413333 0-5.12 1.706666-1.706667 0-3.413333 1.706667-5.12 1.706667-1.706667 1.706667-3.413333 3.413333-5.12 3.413333-1.706667 0-1.706667 3.413333-5.12 6.826667-5.12 6.826667-8.533333 13.653333-13.653334 20.48-3.413333 6.826667-8.533333 15.36-15.36 27.306667l-5.12 10.24c0 1.706667-1.706667 5.12-1.706666 10.24V870.4c0 1.706667 0 3.413333 1.706666 5.12 1.706667 1.706667 1.706667 3.413333 5.12 3.413333 1.706667 0 3.413333 1.706667 6.826667 1.706667s6.826667 1.706667 8.533333 1.706667v6.826666h-61.44v-6.826666h8.533334c3.413333 0 5.12 0 6.826666-1.706667 1.706667-1.706667 3.413333-1.706667 5.12-3.413333 0-1.706667 1.706667-3.413333 1.706667-5.12v-32.426667c0-1.706667 0-3.413333-1.706667-5.12-1.706667-3.413333-3.413333-5.12-5.12-8.533333-3.413333-6.826667-8.533333-15.36-11.946666-23.893334-5.12-8.533333-8.533333-15.36-11.946667-22.186666-1.706667-3.413333-3.413333-6.826667-5.12-8.533334l-5.12-5.12c-1.706667-1.706667-3.413333-1.706667-5.12-1.706666-1.706667 0-3.413333 0-5.12-1.706667v-6.826667h56.32v6.826667c-6.826667 0-10.24 0-13.653333 1.706667-3.413333 0-3.413333 1.706667-3.413334 3.413333v1.706667c0 1.706667 1.706667 1.706667 1.706667 3.413333s1.706667 3.413333 3.413333 5.12c1.706667 1.706667 1.706667 3.413333 3.413334 6.826667 3.413333 5.12 5.12 10.24 8.533333 17.066666 3.413333 5.12 6.826667 11.946667 11.946667 20.48 10.24-15.36 17.066667-27.306667 22.186666-35.84 5.12-8.533333 6.826667-13.653333 6.826667-15.36 0-1.706667 0-1.706667-1.706667-3.413333-1.706667 0-1.706667-1.706667-3.413333-1.706667s-3.413333 0-5.12-1.706666h-5.12v-6.826667h46.08v6.826667z" fill="#231815" p-id="3632"></path><path d="M1518.933333 493.226667c-3.413333 0-6.826667 0-11.946666 1.706666-10.24 3.413333-22.186667 6.826667-34.133334 11.946667-11.946667 3.413333-29.013333 10.24-42.666666 1.706667l-1.706667-1.706667c11.946667-11.946667 11.946667-20.48 29.013333-29.013333 0-11.946667 5.12-27.306667-1.706666-34.133334 1.706667-18.773333 23.893333-10.24 39.253333-13.653333 10.24-1.706667 22.186667-6.826667 30.72-11.946667 10.24-6.826667 18.773333-18.773333 23.893333-30.72 1.706667-5.12 0-13.653333 1.706667-18.773333v-8.533333c-1.706667-1.706667-29.013333-10.24-32.426667-13.653334-3.413333-1.706667-10.24-8.533333-11.946666-11.946666-1.706667-3.413333 0-5.12-1.706667-8.533334s-3.413333-3.413333-5.12-5.12c-5.12 0-6.826667 1.706667-10.24 5.12 0 0-1.706667 1.706667-3.413333 1.706667V358.4c-3.413333 6.826667-15.36 10.24-20.48 13.653333-5.12 5.12-8.533333 10.24-13.653334 15.36-6.826667 0-6.826667-3.413333-11.946666-5.12-10.24-46.08-13.653333-83.626667-44.373334-107.52-6.826667-5.12-13.653333-17.066667-22.186666-20.48-3.413333 8.533333-6.826667 18.773333-10.24 27.306667v6.826667c-5.12 20.48-10.24 42.666667-15.36 64.853333-1.706667 5.12-8.533333 34.133333-6.826667 37.546667 5.12 22.186667 11.946667 51.2 17.066667 71.68 3.413333 10.24 0 17.066667 3.413333 25.6 5.12 17.066667 18.773333 58.026667 32.426667 66.56 13.653333 8.533333 35.84 13.653333 52.906666 5.12 5.12-1.706667 10.24-10.24 13.653334-11.946667h17.066666c17.066667-5.12 32.426667-8.533333 49.493334-13.653333 5.12-1.706667 20.48-10.24 25.6-15.36 6.826667-6.826667 6.826667-18.773333 13.653333-25.6 0-8.533333 0-11.946667-3.413333-15.36-18.773333 3.413333-30.72 10.24-44.373334 15.36zM1269.76 346.453333c0-15.36 0-32.426667-1.706667-44.373333-1.706667-10.24 1.706667-22.186667-1.706666-30.72-10.24-23.893333-54.613333-46.08-78.506667-58.026667-10.24-5.12-10.24-13.653333-22.186667-17.066666-3.413333 0-8.533333 6.826667-8.533333 8.533333 0 15.36 11.946667 22.186667 18.773333 32.426667 5.12 6.826667 8.533333 13.653333 11.946667 18.773333 6.826667 10.24 18.773333 18.773333 23.893333 30.72 6.826667 20.48 6.826667 71.68 1.706667 93.866667v22.186666c0 8.533333-1.706667 17.066667-1.706667 25.6-6.826667-1.706667-10.24-8.533333-17.066666-11.946666-5.12 0-10.24-1.706667-15.36-1.706667-5.12-3.413333-6.826667-8.533333-13.653334-10.24-6.826667-1.706667-13.653333 0-20.48-1.706667-8.533333-3.413333-10.24-8.533333-22.186666-8.533333-1.706667 0-6.826667 3.413333-6.826667 5.12 1.706667 10.24 10.24 13.653333 11.946667 22.186667v8.533333c1.706667 6.826667 3.413333 17.066667 5.12 25.6 3.413333 13.653333-5.12 20.48-8.533334 29.013333-10.24 32.426667-15.36 64.853333-40.96 81.92-1.706667 0-1.706667 1.706667-1.706666 1.706667v5.12c0 18.773333-3.413333 54.613333 13.653333 59.733333l1.706667 1.706667h20.48c6.826667-3.413333 17.066667-18.773333 23.893333-23.893333 10.24-6.826667 20.48-11.946667 32.426667-18.773334 1.706667-1.706667 3.413333-5.12 5.12-6.826666 10.24-8.533333 20.48-15.36 29.013333-25.6h3.413333c1.706667 3.413333 1.706667 11.946667 0 15.36 0 18.773333-1.706667 32.426667 5.12 44.373333 5.12 0 10.24 0 13.653334-1.706667 8.533333-3.413333 13.653333-18.773333 17.066666-27.306666 10.24-22.186667 11.946667-49.493333 18.773334-76.8 0-10.24 0-18.773333 1.706666-29.013334 5.12-25.6 5.12-56.32 5.12-85.333333 0-11.946667 0-23.893333 1.706667-34.133333-5.12-5.12-5.12-11.946667-5.12-18.773334z m-59.733333 163.84v15.36c-1.706667 5.12-11.946667 8.533333-17.066667 11.946667-3.413333 1.706667-8.533333 6.826667-11.946667 8.533333-8.533333 3.413333-15.36 3.413333-22.186666 8.533334-6.826667 3.413333-13.653333 10.24-18.773334 13.653333-5.12 3.413333-20.48 10.24-29.013333 5.12-1.706667 0-1.706667 0-3.413333-1.706667 0-11.946667 10.24-17.066667 15.36-25.6 10.24-15.36 22.186667-29.013333 32.426666-44.373333 0-3.413333 1.706667-5.12 1.706667-8.533333 3.413333-5.12 10.24-10.24 13.653333-17.066667 20.48 0 30.72-10.24 34.133334-25.6 3.413333 0 3.413333 0 5.12 1.706667v39.253333c1.706667 3.413333 3.413333 13.653333 0 18.773333zM2711.893333 296.96c3.413333 5.12 10.24 8.533333 13.653334 13.653333 11.946667 17.066667 15.36 51.2 22.186666 71.68 20.48 0 29.013333-17.066667 37.546667-29.013333 0-27.306667-29.013333-71.68-44.373333-81.92-10.24-6.826667-20.48-8.533333-30.72-15.36-10.24-6.826667-15.36-17.066667-29.013334-22.186667-1.706667 0-5.12 3.413333-5.12 5.12v18.773334c3.413333 3.413333 8.533333 6.826667 11.946667 10.24 8.533333 10.24 15.36 18.773333 23.893333 29.013333z" fill="#9A0000" p-id="3633"></path><path d="M2954.24 329.386667c17.066667-22.186667 40.96-44.373333 51.2-71.68 3.413333-8.533333 17.066667-27.306667 8.533333-39.253334-3.413333-5.12-15.36-1.706667-22.186666-5.12-3.413333-1.706667-6.826667-5.12-8.533334-5.12-5.12-1.706667-10.24 1.706667-13.653333 3.413334-13.653333 5.12-27.306667 6.826667-39.253333 11.946666-5.12 1.706667-22.186667 11.946667-29.013334 8.533334-1.706667 0-1.706667 0-3.413333-1.706667 1.706667-22.186667 17.066667-34.133333 23.893333-51.2 1.706667-5.12 8.533333-18.773333 5.12-25.6 0-10.24-11.946667-17.066667-17.066666-22.186667-1.706667-1.706667-10.24 1.706667-10.24 5.12 0 29.013333-11.946667 59.733333-29.013334 71.68-5.12 3.413333-10.24 1.706667-17.066666 5.12-11.946667 3.413333-22.186667 15.36-35.84 5.12-6.826667 0-6.826667 1.706667-11.946667 3.413334 1.706667 11.946667 8.533333 20.48 17.066667 23.893333 1.706667 1.706667 10.24 0 15.36 0 0 8.533333-6.826667 17.066667-11.946667 20.48 0 3.413333 0 6.826667 1.706667 8.533333 11.946667 1.706667 13.653333-3.413333 25.6-5.12-1.706667 13.653333-11.946667 18.773333-18.773334 29.013334-8.533333 1.706667-18.773333 3.413333-25.6 3.413333l-1.706666 1.706667c0 8.533333 3.413333 11.946667 8.533333 15.36-3.413333 11.946667-11.946667 20.48-18.773333 29.013333-3.413333 3.413333-10.24 8.533333-5.12 15.36 1.706667 3.413333 3.413333 3.413333 6.826666 3.413333 11.946667-10.24 30.72-15.36 35.84-32.426666 17.066667 1.706667 17.066667 5.12 29.013334 11.946666 0 6.826667-3.413333 13.653333-6.826667 17.066667 0 5.12 0 8.533333 1.706667 11.946667 13.653333 0 34.133333-18.773333 42.666666-11.946667h1.706667c-1.706667 6.826667-10.24 8.533333-15.36 11.946667-11.946667 6.826667-25.6 11.946667-39.253333 18.773333-17.066667 8.533333-37.546667 20.48-54.613334 30.72l-15.36 5.12c-27.306667 15.36-52.906667 35.84-80.213333 51.2 0 1.706667 0 1.706667-1.706667 1.706667 0 3.413333 0 5.12 1.706667 8.533333 34.133333 6.826667 61.44-8.533333 85.333333-18.773333 32.426667-11.946667 63.146667-34.133333 88.746667-52.906667 8.533333-6.826667 15.36-17.066667 23.893333-22.186667 6.826667-5.12 13.653333-6.826667 18.773334-11.946666h5.12c-1.706667 6.826667-6.826667 10.24-10.24 15.36-1.706667 3.413333-1.706667 6.826667-3.413334 8.533333-6.826667 5.12-11.946667 11.946667-18.773333 17.066667-3.413333 3.413333-5.12 10.24-8.533333 11.946666-8.533333 6.826667-18.773333 13.653333-25.6 22.186667-1.706667 1.706667 0 6.826667 1.706666 11.946667 18.773333-1.706667 29.013333-13.653333 40.96-18.773334 8.533333-3.413333 17.066667-5.12 25.6-8.533333 5.12-3.413333 8.533333-8.533333 11.946667-11.946667 22.186667-17.066667 40.96-29.013333 37.546667-68.266666-5.12-1.706667-13.653333-1.706667-18.773334-5.12h-23.893333c5.12-22.186667 17.066667-22.186667 25.6-30.72z m-37.546667-15.36c-5.12 5.12-6.826667 11.946667-11.946666 18.773333-3.413333 0-3.413333 0-5.12-1.706667-3.413333-17.066667-5.12-29.013333-10.24-40.96-3.413333 0-5.12-1.706667-8.533334 1.706667-6.826667 5.12-1.706667 20.48-10.24 27.306667-3.413333 3.413333-11.946667-8.533333-15.36-11.946667 1.706667-23.893333 25.6-42.666667 37.546667-58.026667 22.186667 0 37.546667 11.946667 58.026667 11.946667 0 29.013333-22.186667 37.546667-34.133334 52.906667zM2676.053333 418.133333c3.413333 6.826667 10.24 13.653333 11.946667 22.186667 5.12 1.706667 6.826667 0 11.946667 0 8.533333-8.533333 13.653333-17.066667 17.066666-32.426667 1.706667-13.653333-25.6-46.08-34.133333-49.493333-1.706667-1.706667-6.826667-1.706667-11.946667-1.706667-1.706667 8.533333 1.706667 30.72 3.413334 39.253334 1.706667 6.826667 1.706667 15.36 1.706666 22.186666zM2874.026667 482.986667c-8.533333 11.946667-44.373333 10.24-59.733334 17.066666-20.48 8.533333-42.666667 15.36-64.853333 25.6-13.653333 6.826667-29.013333 15.36-42.666667 20.48-3.413333 0-6.826667 1.706667-11.946666 1.706667-6.826667 1.706667-11.946667 8.533333-18.773334 11.946667-5.12 0-10.24 0-15.36 1.706666-5.12 3.413333-8.533333 8.533333-11.946666 11.946667 0 20.48 10.24 25.6 15.36 37.546667 1.706667 1.706667 0 5.12 1.706666 8.533333 1.706667 1.706667 6.826667 3.413333 10.24 5.12 8.533333 1.706667 18.773333-5.12 25.6-8.533333 20.48-8.533333 37.546667-23.893333 54.613334-35.84l23.893333-11.946667c8.533333-3.413333 13.653333 0 22.186667-3.413333 13.653333-5.12 6.826667-13.653333 27.306666-8.533334 0 3.413333 3.413333 5.12 3.413334 8.533334 1.706667 8.533333-3.413333 17.066667-1.706667 23.893333 1.706667 6.826667 3.413333 8.533333 3.413333 17.066667-3.413333 3.413333-3.413333 8.533333-6.826666 10.24-10.24 6.826667-25.6 10.24-37.546667 13.653333-8.533333 1.706667-20.48-3.413333-27.306667 1.706667h-1.706666c0 3.413333 0 5.12 1.706666 8.533333 3.413333 10.24 10.24 6.826667 20.48 10.24 10.24 3.413333 22.186667 18.773333 39.253334 8.533333 3.413333-1.706667 5.12-6.826667 10.24-8.533333 8.533333-1.706667 17.066667 1.706667 22.186666-3.413333 5.12-3.413333 6.826667-10.24 8.533334-15.36 1.706667-5.12 6.826667-11.946667 8.533333-17.066667 1.706667-8.533333-1.706667-15.36-3.413333-18.773333 0-5.12-1.706667-8.533333-1.706667-13.653334-3.413333-10.24-10.24-15.36-11.946667-32.426666 0-1.706667 1.706667-3.413333 3.413334-5.12 11.946667-3.413333 25.6-5.12 40.96-5.12 5.12-5.12 11.946667-8.533333 17.066666-15.36 3.413333-5.12 3.413333-10.24 5.12-15.36 0-10.24-3.413333-11.946667-8.533333-18.773334-13.653333-1.706667-23.893333-6.826667-39.253333-6.826666z" fill="#9A0000" p-id="3634"></path><path d="M2464.426667 341.333333c3.413333-5.12 3.413333-8.533333 8.533333-11.946666 3.413333-1.706667-1.706667-15.36-3.413333-15.36-42.666667-10.24-46.08 22.186667-68.266667 37.546666-10.24 8.533333-20.48 11.946667-32.426667 20.48h-1.706666c-3.413333-22.186667-1.706667-52.906667-1.706667-76.8v-29.013333c0-1.706667 5.12-5.12 5.12-6.826667 3.413333-8.533333 1.706667-23.893333-1.706667-30.72-6.826667-10.24-18.773333-11.946667-29.013333-18.773333-5.12-3.413333-8.533333-10.24-15.36-11.946667-8.533333-3.413333-18.773333 0-27.306667-5.12-5.12 0-6.826667 1.706667-10.24 5.12-10.24 25.6 13.653333 63.146667 22.186667 81.92 6.826667 17.066667 6.826667 66.56 1.706667 85.333334-3.413333 13.653333 1.706667 35.84-5.12 44.373333-5.12 5.12-40.96 18.773333-51.2 22.186667-8.533333 3.413333-17.066667 8.533333-25.6 11.946666-10.24 3.413333-18.773333 3.413333-27.306667 8.533334-11.946667 6.826667-32.426667 20.48-46.08 25.6-3.413333 0-8.533333 0-11.946667 1.706666-5.12 1.706667-13.653333 5.12-18.773333 6.826667-3.413333 1.706667-8.533333 1.706667-8.533333 1.706667-3.413333-3.413333-8.533333-10.24-11.946667-15.36-1.706667-1.706667-3.413333-3.413333-5.12-1.706667 0 0-1.706667 1.706667-1.706667 3.413333-1.706667 35.84-3.413333 42.666667 11.946667 66.56 32.426667 6.826667 56.32-8.533333 78.506667-23.893333 10.24-6.826667 18.773333-10.24 29.013333-17.066667 6.826667-5.12 11.946667-13.653333 20.48-18.773333 3.413333 0 6.826667-1.706667 10.24-1.706667 15.36-5.12 30.72-15.36 49.493333-15.36 0 37.546667-32.426667 75.093333-54.613333 90.453334-3.413333 1.706667-6.826667 5.12-11.946667 6.826666-5.12 1.706667-8.533333 3.413333-11.946666 5.12-3.413333 0-6.826667 0-8.533334 1.706667-5.12 3.413333-13.653333 6.826667-18.773333 11.946667-6.826667 5.12-6.826667 10.24-11.946667 18.773333v1.706667c59.733333 0 97.28-27.306667 131.413334-54.613334 11.946667-10.24 27.306667-18.773333 34.133333-34.133333 8.533333-18.773333 11.946667-42.666667 17.066667-61.44 1.706667-8.533333 1.706667-15.36 3.413333-23.893333 3.413333-5.12 20.48-15.36 25.6-18.773334 5.12-5.12 10.24-11.946667 17.066667-15.36l35.84-25.6c6.826667-10.24 17.066667-18.773333 20.48-25.6zM2467.84 512c-11.946667-8.533333-15.36-22.186667-35.84-22.186667-1.706667 1.706667-1.706667 1.706667-3.413333 1.706667 0 27.306667 3.413333 30.72 10.24 49.493333 0 3.413333 1.706667 6.826667 1.706666 10.24 3.413333 5.12 13.653333 17.066667 6.826667 27.306667 1.706667 10.24 18.773333 13.653333 30.72 10.24 11.946667-3.413333 25.6-13.653333 34.133333-22.186667-1.706667-29.013333-27.306667-40.96-44.373333-54.613333z" fill="#9A0000" p-id="3635"></path><path d="M1829.546667 162.133333c1.706667 1.706667 3.413333 1.706667 5.12 3.413334 3.413333 6.826667 8.533333 15.36 11.946666 22.186666 5.12 13.653333 5.12 37.546667-5.12 44.373334-1.706667 1.706667 0 11.946667 3.413334 11.946666 18.773333-1.706667 35.84-15.36 42.666666-29.013333 30.72 1.706667 47.786667-8.533333 46.08-39.253333-3.413333-3.413333-5.12-8.533333-8.533333-11.946667-8.533333-6.826667-20.48-13.653333-29.013333-20.48-5.12-3.413333-10.24-3.413333-15.36-5.12-15.36-10.24-29.013333-20.48-54.613334-18.773333-13.653333 15.36-5.12 15.36 1.706667 29.013333 0 5.12 1.706667 8.533333 1.706667 13.653333zM1805.653333 368.64c8.533333 1.706667 29.013333-1.706667 35.84-5.12 18.773333-6.826667 39.253333-39.253333 54.613334-51.2 10.24-8.533333 23.893333-20.48 35.84-25.6 5.12 0 10.24-1.706667 15.36-1.706667l15.36-15.36c0-6.826667-1.706667-11.946667-5.12-11.946666h-13.653334c-5.12 3.413333-17.066667 1.706667-23.893333 5.12-13.653333 3.413333-25.6 10.24-37.546667 13.653333-3.413333 0-6.826667 0-10.24 1.706667-37.546667 13.653333-76.8 30.72-110.933333 44.373333-1.706667 5.12-6.826667 13.653333-1.706667 20.48 0 10.24 32.426667 22.186667 46.08 25.6zM1918.293333 469.333333c-13.653333 0-25.6-3.413333-37.546666 1.706667-5.12 1.706667-8.533333 6.826667-15.36 8.533333 1.706667-6.826667 15.36-15.36 20.48-22.186666 3.413333-5.12 8.533333-10.24 11.946666-13.653334 3.413333-3.413333 10.24-5.12 11.946667-8.533333 1.706667-3.413333 3.413333-6.826667 5.12-8.533333 1.706667 0 3.413333 0 5.12-1.706667 3.413333-3.413333 3.413333-8.533333 6.826667-10.24 10.24-6.826667 18.773333-8.533333 25.6-18.773333 1.706667-1.706667-1.706667-6.826667-3.413334-8.533334-6.826667-5.12-44.373333-10.24-58.026666-6.826666-6.826667 1.706667-15.36 6.826667-22.186667 10.24-1.706667 3.413333-3.413333 5.12-5.12 8.533333-5.12 0-11.946667 1.706667-17.066667 1.706667-6.826667 3.413333-11.946667 11.946667-18.773333 17.066666-13.653333 10.24-29.013333 17.066667-42.666667 25.6-6.826667 3.413333-13.653333-11.946667-18.773333-15.36-3.413333-1.706667-6.826667-1.706667-8.533333-5.12-3.413333 0-3.413333 0-5.12 1.706667-3.413333 1.706667-1.706667 1.706667-5.12 1.706667 0 8.533333 3.413333 17.066667 1.706666 25.6-5.12 18.773333-11.946667 52.906667-5.12 75.093333 1.706667 3.413333 5.12 8.533333 6.826667 11.946667 1.706667 3.413333 1.706667 8.533333 3.413333 11.946666 3.413333 5.12 10.24 6.826667 13.653334 15.36 10.24-1.706667 27.306667-32.426667 34.133333-44.373333 1.706667-3.413333 1.706667-5.12 1.706667-6.826667v-27.306666c3.413333-1.706667 11.946667-1.706667 15.36-5.12 5.12 0 6.826667 0 10.24 1.706666 0 3.413333-13.653333 34.133333-15.36 35.84 1.706667 8.533333 6.826667 10.24 11.946666 11.946667-1.706667 15.36-18.773333 18.773333-29.013333 25.6-11.946667 8.533333-25.6 18.773333-37.546667 25.6-5.12 3.413333-10.24 3.413333-15.36 6.826667-3.413333 1.706667-5.12 6.826667-8.533333 8.533333-5.12 3.413333-10.24 3.413333-15.36 6.826667-1.706667 1.706667-3.413333 5.12-6.826667 6.826666-5.12 1.706667-8.533333-3.413333-11.946666-3.413333-6.826667-1.706667-11.946667 3.413333-17.066667 5.12-1.706667 27.306667 10.24 56.32 40.96 56.32 15.36-17.066667 32.426667-30.72 46.08-47.786667 5.12-3.413333 10.24-8.533333 15.36-11.946666 3.413333-5.12 3.413333-8.533333 8.533333-13.653334 1.706667-1.706667 3.413333-1.706667 5.12-1.706666 3.413333-5.12 8.533333-8.533333 11.946667-13.653334 3.413333-3.413333 6.826667-3.413333 10.24-6.826666 1.706667 0 1.706667 0 3.413333 1.706666 3.413333 3.413333 3.413333 10.24 5.12 15.36 0 10.24 1.706667 22.186667-5.12 25.6-3.413333 0-6.826667 1.706667-10.24 1.706667-3.413333 1.706667-3.413333 6.826667-6.826666 8.533333v6.826667c0 1.706667 20.48 8.533333 23.893333 10.24 1.706667 1.706667 6.826667 6.826667 8.533333 10.24v10.24c1.706667 3.413333 6.826667 6.826667 8.533334 10.24 3.413333 0 11.946667 1.706667 15.36 0 1.706667 0 1.706667 0 3.413333-1.706667 0-34.133333-3.413333-66.56-11.946667-92.16-3.413333-8.533333-15.36-25.6-8.533333-37.546666 0-17.066667 11.946667-11.946667 22.186667-18.773334 13.653333-8.533333 29.013333-17.066667 40.96-25.6 5.12-3.413333 6.826667-10.24 11.946666-15.36-1.706667-8.533333-3.413333-10.24-5.12-15.36zM1983.146667 544.426667c-11.946667-15.36-23.893333-30.72-52.906667-30.72-1.706667 1.706667-6.826667 1.706667-10.24 1.706666-5.12 23.893333-5.12 42.666667 6.826667 59.733334 3.413333 3.413333 6.826667 5.12 8.533333 8.533333 6.826667 10.24 10.24 18.773333 22.186667 23.893333 11.946667 8.533333 27.306667-6.826667 32.426666-11.946666 1.706667-6.826667 6.826667-27.306667 3.413334-34.133334 0-8.533333-5.12-10.24-10.24-17.066666z" fill="#9A0000" p-id="3636"></path></svg>