<?xml version="1.0" standalone="no"?><!DOCTYPE svg PUBLIC "-//W3C//DTD SVG 1.1//EN" "http://www.w3.org/Graphics/SVG/1.1/DTD/svg11.dtd"><svg t="1640612744800" class="icon" viewBox="0 0 1216 1024" version="1.1" xmlns="http://www.w3.org/2000/svg" p-id="8276" xmlns:xlink="http://www.w3.org/1999/xlink" width="237.5" height="200"><defs><style type="text/css"></style></defs><path d="M1152 510.528V128a128 128 0 0 0-128-128H128a128 128 0 0 0-128 128v768a128 128 0 0 0 128 128h448.768v-96H128a32 32 0 0 1-32-32V128a32 32 0 0 1 32-32h896a32 32 0 0 1 32 32v382.528H1152zM1152 128a128 128 0 0 0-128-128H128a128 128 0 0 0-128 128v768a128 128 0 0 0 128 128h448.768v-96H128a32 32 0 0 1-32-32V128a32 32 0 0 1 32-32h896a32 32 0 0 1 32 32v382.528H1152V128z" fill="#13CBB9" p-id="8277"></path><path d="M937.472 487.36l182.144 181.952a112 112 0 0 1 0.128 158.4l-0.64 0.576-181.824 179.264a48 48 0 1 1-67.392-68.352l144.32-142.4H643.84a48 48 0 0 1 0-96h371.584l-145.728-145.536a48 48 0 0 1 67.84-67.904zM1030.528 54.4l67.648 68.096-438.336 435.52a112 112 0 0 1-132.928 18.688l-395.648 391.872-67.584-68.224L455.68 512.064 63.616 122.496 131.264 54.4l438.4 435.52a16 16 0 0 0 22.528 0L1030.592 54.4z" fill="#13CBB9" p-id="8278"></path></svg>